<?xml version="1.0" standalone="no" ?>
<!DOCTYPE svg PUBLIC "-//W3C//DTD SVG 1.1//EN" "http://www.w3.org/Graphics/SVG/1.1/DTD/svg11.dtd">
<svg width="118px" height="79px" viewBox="0 0 118 79" style="background-color: #ffffff00" xmlns="http://www.w3.org/2000/svg" xmlns:xlink="http://www.w3.org/1999/xlink" version="1.1" >
<path stroke="none" fill="#000000" transform="matrix(0.0833333 0 0 0.0833333 -422.333 -333)" d="M 6126,4394.54 L 6120,4398 L 6114,4394.54 L 6114,4110 L 6126,4110 L 6126,4394.54 Z " />
<path stroke="none" fill="#000000" transform="matrix(0.0833333 0 0 0.0833333 -422.333 -333)" d="M 5878.1,4544.59 L 5870.58,4542 L 5870.58,4535.07 L 6114,4394.54 L 6120,4398 L 6120,4404.93 L 5878.1,4544.59 Z " />
<path stroke="none" fill="#000000" transform="matrix(0.0833333 0 0 0.0833333 -422.333 -333)" d="M 5873.58,4487.34 L 5867.58,4476.94 L 5907.1,4454.13 L 5913.1,4464.52 L 5873.58,4487.34 Z " />
<path stroke="none" fill="#000000" transform="matrix(0.0833333 0 0 0.0833333 -422.333 -333)" d="M 5952.61,4441.71 L 5946.61,4431.32 L 5986.13,4408.5 L 5992.13,4418.89 L 5952.61,4441.71 Z " />
<path stroke="none" fill="#000000" transform="matrix(0.0833333 0 0 0.0833333 -422.333 -333)" d="M 6031.64,4396.08 L 6025.64,4385.69 L 6065.16,4362.87 L 6071.16,4373.27 L 6031.64,4396.08 Z " />
<text x="0" y="0" stroke="none" fill="#000000" transform="matrix(0.0833333 0 0 0.0833333 102.451 52)" font-style="normal" font-weight="normal" font-size="200px" font-family="Arial" >
H</text>
<path stroke="none" fill="#000000" transform="matrix(0.0833333 0 0 0.0833333 -422.333 -333)" d="M 6276.32,4481.32 L 6270.32,4491.71 L 6120,4404.93 L 6120,4398 L 6126,4394.54 L 6276.32,4481.32 Z " />
<text x="0" y="0" stroke="none" fill="#000000" transform="matrix(0.0833333 0 0 0.0833333 40.0975 40)" font-style="normal" font-weight="normal" font-size="200px" font-family="Arial" >
H</text>
<path stroke="none" fill="#000000" transform="matrix(0.0833333 0 0 0.0833333 -422.333 -333)" d="M 5720.5,4462.28 L 5726.5,4451.89 L 5774.53,4479.61 L 5768.53,4490.01 L 5720.5,4462.28 Z " />
<path stroke="none" fill="#000000" transform="matrix(0.0833333 0 0 0.0833333 -422.333 -333)" d="M 5816.56,4517.74 L 5822.56,4507.34 L 5870.58,4535.07 L 5865.08,4545.75 L 5816.56,4517.74 Z " />
<path stroke="#000000" stroke-width="10" fill="none" transform="matrix(0.0833333 0 0 0.0833333 -422.333 -333)" d="M 6048.03,4514.5 A 71.7999,71.7999 0 1 0 6191.63,4514.5A 71.7999,71.7999 0 1 0 6048.03,4514.5Z " />
<path stroke="none" fill="#000000" transform="matrix(0.0833333 0 0 0.0833333 -422.333 -333)" d="M 6080.17,4509.17 L 6158.83,4509.17 L 6158.83,4519.17 L 6080.17,4519.17 Z " />
<path stroke="none" fill="#000000" transform="matrix(0.0833333 0 0 0.0833333 -422.333 -333)" d="M 6124.5,4474.83 L 6124.5,4553.5 L 6114.5,4553.5 L 6114.5,4474.83 Z " />
<text x="0" y="0" stroke="none" fill="#000000" transform="matrix(0.0833333 0 0 0.0833333 18.8128 28)" font-style="normal" font-weight="normal" font-size="200px" font-family="Arial" >
O</text>
<path stroke="none" fill="#000000" transform="matrix(0.0833333 0 0 0.0833333 -422.333 -333)" d="M 5461.86,4312.95 L 5467.86,4302.56 L 5528.07,4337.32 L 5522.07,4347.71 L 5461.86,4312.95 Z " />
<path stroke="none" fill="#000000" transform="matrix(0.0833333 0 0 0.0833333 -422.333 -333)" d="M 5125.34,4403.2 L 5119.34,4392.8 L 5276.08,4302.31 L 5282.08,4312.7 L 5125.34,4403.2 Z " />
<text x="0" y="0" stroke="none" fill="#000000" transform="matrix(0.0833333 0 0 0.0833333 67.0937 75.1822)" font-style="normal" font-weight="normal" font-size="200px" font-family="Arial" >
H</text>
<path stroke="none" fill="#000000" transform="matrix(0.0833333 0 0 0.0833333 -422.333 -333)" d="M 5946.47,4709.29 L 5888.51,4724.82 L 5865.08,4545.75 L 5870.58,4542 L 5878.1,4544.59 L 5946.47,4709.29 Z " />
<text x="0" y="0" stroke="none" fill="#000000" transform="matrix(0.0833333 0 0 0.0833333 48.8821 72.7846)" font-style="normal" font-weight="normal" font-size="200px" font-family="Arial" >
H</text>
<path stroke="none" fill="#000000" transform="matrix(0.0833333 0 0 0.0833333 -422.333 -333)" d="M 5809.7,4707.45 L 5757.74,4677.45 L 5765.76,4668.23 L 5813.68,4695.9 L 5809.7,4707.45 Z " />
<path stroke="none" fill="#000000" transform="matrix(0.0833333 0 0 0.0833333 -422.333 -333)" d="M 5828.2,4653.75 L 5795,4634.58 L 5803.02,4625.36 L 5832.18,4642.19 L 5828.2,4653.75 Z " />
<path stroke="none" fill="#000000" transform="matrix(0.0833333 0 0 0.0833333 -422.333 -333)" d="M 5846.69,4600.04 L 5832.26,4591.71 L 5840.28,4582.48 L 5850.68,4588.48 L 5846.69,4600.04 Z " />
<path stroke="#000000" stroke-width="10" fill="none" transform="matrix(0.0833333 0 0 0.0833333 -422.333 -333)" d="M 5437.58,4117.04 A 71.7999,71.7999 0 1 0 5581.18,4117.04A 71.7999,71.7999 0 1 0 5437.58,4117.04Z " />
<path stroke="none" fill="#000000" transform="matrix(0.0833333 0 0 0.0833333 -422.333 -333)" d="M 5469.72,4111.7 L 5548.38,4111.7 L 5548.38,4121.7 L 5469.72,4121.7 Z " />
</svg>
