<?xml version="1.0" standalone="no" ?>
<!DOCTYPE svg PUBLIC "-//W3C//DTD SVG 1.1//EN" "http://www.w3.org/Graphics/SVG/1.1/DTD/svg11.dtd">
<svg width="158px" height="96px" viewBox="0 0 158 96" style="background-color: #ffffff00" xmlns="http://www.w3.org/2000/svg" xmlns:xlink="http://www.w3.org/1999/xlink" version="1.1" >
<path stroke="none" fill="#000000" transform="matrix(0.0833333 0 0 0.0833333 -411.333 -447)" d="M 6130.49,5865.48 L 6124.49,5868.94 L 6118.49,5865.48 L 6118.49,5580.94 L 6130.49,5580.94 L 6130.49,5865.48 Z " />
<path stroke="none" fill="#000000" transform="matrix(0.0833333 0 0 0.0833333 -411.333 -447)" d="M 5882.59,6015.53 L 5875.07,6012.94 L 5875.07,6006.02 L 6118.49,5865.48 L 6124.49,5868.94 L 6124.49,5875.87 L 5882.59,6015.53 Z " />
<path stroke="none" fill="#000000" transform="matrix(0.0833333 0 0 0.0833333 -411.333 -447)" d="M 5878.07,5958.28 L 5872.07,5947.89 L 5911.59,5925.07 L 5917.59,5935.47 L 5878.07,5958.28 Z " />
<path stroke="none" fill="#000000" transform="matrix(0.0833333 0 0 0.0833333 -411.333 -447)" d="M 5957.1,5912.65 L 5951.1,5902.26 L 5990.62,5879.45 L 5996.62,5889.84 L 5957.1,5912.65 Z " />
<path stroke="none" fill="#000000" transform="matrix(0.0833333 0 0 0.0833333 -411.333 -447)" d="M 6036.13,5867.02 L 6030.13,5856.63 L 6069.65,5833.82 L 6075.65,5844.21 L 6036.13,5867.02 Z " />
<text x="0" y="0" stroke="none" fill="#000000" transform="matrix(0.0833333 0 0 0.0833333 114.283 60.5786)" font-style="normal" font-weight="normal" font-size="200px" font-family="Arial" >
Br</text>
<path stroke="none" fill="#000000" transform="matrix(0.0833333 0 0 0.0833333 -411.333 -447)" d="M 6283.43,5953.78 L 6277.43,5964.17 L 6226.45,5934.74 L 6232.45,5924.35 L 6283.43,5953.78 Z " />
<path stroke="none" fill="#000000" transform="matrix(0.0833333 0 0 0.0833333 -411.333 -447)" d="M 6181.47,5894.91 L 6175.47,5905.31 L 6124.49,5875.87 L 6130.49,5865.48 L 6181.47,5894.91 Z " />
<text x="0" y="0" stroke="none" fill="#000000" transform="matrix(0.0833333 0 0 0.0833333 51.4713 48.5786)" font-style="normal" font-weight="normal" font-size="200px" font-family="Arial" >
H</text>
<path stroke="none" fill="#000000" transform="matrix(0.0833333 0 0 0.0833333 -411.333 -447)" d="M 5724.99,5933.22 L 5730.99,5922.83 L 5779.02,5950.56 L 5773.02,5960.95 L 5724.99,5933.22 Z " />
<path stroke="none" fill="#000000" transform="matrix(0.0833333 0 0 0.0833333 -411.333 -447)" d="M 5821.04,5988.68 L 5827.04,5978.29 L 5875.07,6006.02 L 5869.56,6016.69 L 5821.04,5988.68 Z " />
<text x="0" y="0" stroke="none" fill="#000000" transform="matrix(0.0833333 0 0 0.0833333 30.1867 36.5787)" font-style="normal" font-weight="normal" font-size="200px" font-family="Arial" >
O</text>
<path stroke="none" fill="#000000" transform="matrix(0.0833333 0 0 0.0833333 -411.333 -447)" d="M 5466.35,5783.9 L 5472.35,5773.5 L 5532.56,5808.27 L 5526.56,5818.66 L 5466.35,5783.9 Z " />
<path stroke="none" fill="#000000" transform="matrix(0.0833333 0 0 0.0833333 -411.333 -447)" d="M 5129.82,5874.14 L 5123.82,5863.75 L 5280.57,5773.25 L 5286.57,5783.65 L 5129.82,5874.14 Z " />
<text x="0" y="0" stroke="none" fill="#000000" transform="matrix(0.0833333 0 0 0.0833333 78.4675 83.7608)" font-style="normal" font-weight="normal" font-size="200px" font-family="Arial" >
H</text>
<path stroke="none" fill="#000000" transform="matrix(0.0833333 0 0 0.0833333 -411.333 -447)" d="M 5950.96,6180.24 L 5893,6195.77 L 5869.56,6016.69 L 5875.07,6012.94 L 5882.59,6015.53 L 5950.96,6180.24 Z " />
<text x="0" y="0" stroke="none" fill="#000000" transform="matrix(0.0833333 0 0 0.0833333 60.2559 81.3632)" font-style="normal" font-weight="normal" font-size="200px" font-family="Arial" >
H</text>
<path stroke="none" fill="#000000" transform="matrix(0.0833333 0 0 0.0833333 -411.333 -447)" d="M 5814.19,6178.4 L 5762.23,6148.4 L 5770.24,6139.17 L 5818.17,6166.84 L 5814.19,6178.4 Z " />
<path stroke="none" fill="#000000" transform="matrix(0.0833333 0 0 0.0833333 -411.333 -447)" d="M 5832.68,6124.69 L 5799.49,6105.53 L 5807.51,6096.3 L 5836.66,6113.13 L 5832.68,6124.69 Z " />
<path stroke="none" fill="#000000" transform="matrix(0.0833333 0 0 0.0833333 -411.333 -447)" d="M 5851.18,6070.99 L 5836.75,6062.65 L 5844.77,6053.43 L 5855.16,6059.43 L 5851.18,6070.99 Z " />
<path stroke="#000000" stroke-width="10" fill="none" transform="matrix(0.0833333 0 0 0.0833333 -411.333 -447)" d="M 5442.07,5587.98 A 71.7999,71.7999 0 1 0 5585.67,5587.98A 71.7999,71.7999 0 1 0 5442.07,5587.98Z " />
<path stroke="none" fill="#000000" transform="matrix(0.0833333 0 0 0.0833333 -411.333 -447)" d="M 5474.2,5582.65 L 5552.87,5582.65 L 5552.87,5592.65 L 5474.2,5592.65 Z " />
<path stroke="#000000" stroke-width="12" fill="none" transform="matrix(0.0833333 0 0 0.0833333 -411.333 -447)" d="M 6564.22,5414.06 L 6640.51,5414.06 " />
<path stroke="#000000" stroke-width="12" fill="none" transform="matrix(0.0833333 0 0 0.0833333 -411.333 -447)" d="M 6640.51,5414.06 L 6640.51,6464.06 " />
<path stroke="#000000" stroke-width="12" fill="none" transform="matrix(0.0833333 0 0 0.0833333 -411.333 -447)" d="M 6640.51,6464.06 L 6564.22,6464.06 " />
<path stroke="#000000" stroke-width="12" fill="none" transform="matrix(0.0833333 0 0 0.0833333 -411.333 -447)" d="M 5066.81,6464.06 L 4990.51,6464.06 " />
<path stroke="#000000" stroke-width="12" fill="none" transform="matrix(0.0833333 0 0 0.0833333 -411.333 -447)" d="M 4990.51,6464.06 L 4990.51,5414.06 " />
<path stroke="#000000" stroke-width="12" fill="none" transform="matrix(0.0833333 0 0 0.0833333 -411.333 -447)" d="M 4990.51,5414.06 L 5066.81,5414.06 " />
<path stroke="none" fill="#000000" transform="matrix(0.0833333 0 0 0.0833333 -411.333 -447)" d="M 6703.17,5412.66 L 6781.83,5412.66 L 6781.83,5422.66 L 6703.17,5422.66 Z " />
</svg>
