<?xml version="1.0" standalone="no" ?>
<!DOCTYPE svg PUBLIC "-//W3C//DTD SVG 1.1//EN" "http://www.w3.org/Graphics/SVG/1.1/DTD/svg11.dtd">
<svg width="527px" height="166px" viewBox="0 0 527 166" style="background-color: #ffffff00" xmlns="http://www.w3.org/2000/svg" xmlns:xlink="http://www.w3.org/1999/xlink" version="1.1" >
<path stroke="none" fill="#000000" transform="matrix(0.0833333 0 0 0.0833333 -233.333 -196)" d="M 3100.11,3375.39 L 3094.11,3378.85 L 3088.11,3375.39 L 3088.11,3090.85 L 3100.11,3090.85 L 3100.11,3375.39 Z " />
<path stroke="none" fill="#000000" transform="matrix(0.0833333 0 0 0.0833333 -233.333 -196)" d="M 2847.7,3528.05 L 2841.7,3517.66 L 3088.11,3375.39 L 3094.11,3378.85 L 3094.11,3385.78 L 2847.7,3528.05 Z " />
<text x="0" y="0" stroke="none" fill="#000000" transform="matrix(0.0833333 0 0 0.0833333 118.465 92.103)" font-style="normal" font-weight="normal" font-size="200px" font-family="Arial" >
O</text>
<path stroke="none" fill="#000000" transform="matrix(0.0833333 0 0 0.0833333 -233.333 -196)" d="M 4203.9,3427.55 L 4209.9,3437.94 L 4053.16,3528.43 L 4047.16,3518.04 L 4203.9,3427.55 Z " />
<path stroke="#000000" stroke-width="10" fill="none" transform="matrix(0.0833333 0 0 0.0833333 -233.333 -196)" d="M 4365.41,3242.27 A 71.7999,71.7999 0 1 0 4509.01,3242.27A 71.7999,71.7999 0 1 0 4365.41,3242.27Z " />
<path stroke="none" fill="#000000" transform="matrix(0.0833333 0 0 0.0833333 -233.333 -196)" d="M 4397.54,3236.94 L 4476.21,3236.94 L 4476.21,3246.94 L 4397.54,3246.94 Z " />
<path stroke="none" fill="#000000" transform="matrix(0.0833333 0 0 0.0833333 -233.333 -196)" d="M 5173.91,3030.88 L 4748.31,3276.6 L 4742.31,3266.6 L 5167.91,3020.88 Z " />
<path stroke="none" fill="#000000" transform="matrix(0.0833333 0 0 0.0833333 -233.333 -196)" d="M 5306.5,2947.6 C 5306.5,2947.6 5174.11,3077.57 5174.11,3077.57 C 5174.11,3077.57 5180.33,3043.87 5170.05,3026.38 C 5159.76,3008.89 5127.11,2997.63 5127.11,2997.63 C 5127.11,2997.63 5306.5,2947.6 5306.5,2947.6 C 5306.5,2947.6 5306.5,2947.6 5306.5,2947.6 " />
<path stroke="#000000" stroke-width="1" fill="none" transform="matrix(0.0833333 0 0 0.0833333 -233.333 -196)" d="M 5306.5,2947.6 C 5306.5,2947.6 5174.11,3077.57 5174.11,3077.57 C 5174.11,3077.57 5180.33,3043.87 5170.05,3026.38 C 5159.76,3008.89 5127.11,2997.63 5127.11,2997.63 C 5127.11,2997.63 5306.5,2947.6 5306.5,2947.6 C 5306.5,2947.6 5306.5,2947.6 5306.5,2947.6 " />
<path stroke="none" fill="#000000" transform="matrix(0.0833333 0 0 0.0833333 -233.333 -196)" d="M 5766.79,2710.98 L 5760.79,2714.44 L 5754.79,2710.98 L 5754.79,2426.44 L 5766.79,2426.44 L 5766.79,2710.98 Z " />
<path stroke="none" fill="#000000" transform="matrix(0.0833333 0 0 0.0833333 -233.333 -196)" d="M 5514.37,2863.64 L 5508.37,2853.24 L 5754.79,2710.98 L 5760.79,2714.44 L 5760.79,2721.37 L 5514.37,2863.64 Z " />
<path stroke="none" fill="#000000" transform="matrix(0.0833333 0 0 0.0833333 -233.333 -196)" d="M 5779.75,4073.05 L 5767.75,4079.98 L 5767.75,3788.51 L 5779.75,3788.51 L 5779.75,4073.05 Z " />
<path stroke="none" fill="#000000" transform="matrix(0.0833333 0 0 0.0833333 -233.333 -196)" d="M 5540.29,4248.16 L 5534.29,4237.77 L 5796.67,4086.28 L 5802.67,4096.67 L 5540.29,4248.16 Z " />
<path stroke="none" fill="#000000" transform="matrix(0.0833333 0 0 0.0833333 -233.333 -196)" d="M 5514.37,4203.26 L 5508.37,4192.87 L 5770.75,4041.39 L 5776.75,4051.78 L 5514.37,4203.26 Z " />
<text x="0" y="0" stroke="none" fill="#000000" transform="matrix(0.0833333 0 0 0.0833333 262.597 162.209)" font-style="normal" font-weight="normal" font-size="200px" font-family="Arial" >
H</text>
<path stroke="none" fill="#000000" transform="matrix(0.0833333 0 0 0.0833333 -233.333 -196)" d="M 5930.06,4159.84 L 5924.06,4170.23 L 5767.75,4079.98 L 5779.75,4073.05 L 5930.06,4159.84 Z " />
<text x="0" y="0" stroke="none" fill="#000000" transform="matrix(0.0833333 0 0 0.0833333 39.7524 104.071)" font-style="normal" font-weight="normal" font-size="200px" font-family="Arial" >
Br</text>
<path stroke="none" fill="#000000" transform="matrix(0.0833333 0 0 0.0833333 -233.333 -196)" d="M 3253.06,3463.69 L 3247.06,3474.08 L 3094.11,3385.78 L 3094.11,3378.85 L 3100.11,3375.39 L 3253.06,3463.69 Z " />
<text x="0" y="0" stroke="none" fill="#000000" transform="matrix(0.0833333 0 0 0.0833333 261.017 48.7034)" font-style="normal" font-weight="normal" font-size="200px" font-family="Arial" >
O</text>
<path stroke="none" fill="#000000" transform="matrix(0.0833333 0 0 0.0833333 -233.333 -196)" d="M 5927.51,2803.77 L 5921.51,2814.16 L 5760.79,2721.37 L 5760.79,2714.44 L 5766.79,2710.98 L 5927.51,2803.77 Z " />
<path stroke="none" fill="#000000" transform="matrix(0.0833333 0 0 0.0833333 -233.333 -196)" d="M 6256.62,2709.24 L 6262.62,2719.64 L 6098.89,2814.16 L 6092.89,2803.77 L 6256.62,2709.24 Z " />
<text x="0" y="0" stroke="none" fill="#000000" transform="matrix(0.0833333 0 0 0.0833333 333.676 38.3084)" font-style="normal" font-weight="normal" font-size="200px" font-family="Arial" >
Br</text>
<path stroke="#000000" stroke-width="10" fill="none" transform="matrix(0.0833333 0 0 0.0833333 -233.333 -196)" d="M 6985.3,2581.18 A 71.7999,71.7999 0 1 0 7128.9,2581.18A 71.7999,71.7999 0 1 0 6985.3,2581.18Z " />
<path stroke="none" fill="#000000" transform="matrix(0.0833333 0 0 0.0833333 -233.333 -196)" d="M 7017.44,2575.85 L 7096.1,2575.85 L 7096.1,2585.85 L 7017.44,2585.85 Z " />
<text x="0" y="0" stroke="none" fill="#000000" transform="matrix(0.0833333 0 0 0.0833333 75.2999 88.1544)" font-style="normal" font-weight="normal" font-size="200px" font-family="Arial" >
+</text>
<text x="0" y="0" stroke="none" fill="#000000" transform="matrix(0.0833333 0 0 0.0833333 306.239 32.8701)" font-style="normal" font-weight="normal" font-size="200px" font-family="Arial" >
+</text>
<text x="0" y="0" stroke="none" fill="#000000" transform="matrix(0.0833333 0 0 0.0833333 285.849 146.293)" font-style="normal" font-weight="normal" font-size="200px" font-family="Arial" >
+</text>
<text x="0" y="0" stroke="none" fill="#000000" transform="matrix(0.0833333 0 0 0.0833333 321.351 145.042)" font-style="normal" font-weight="normal" font-size="200px" font-family="Arial" >
OH</text>
<path stroke="none" fill="#000000" transform="matrix(0.0833333 0 0 0.0833333 -233.333 -196)" d="M 6638.54,4062.81 L 6644.54,4073.2 L 6487.8,4163.7 L 6481.8,4153.3 L 6638.54,4062.81 Z " />
<path stroke="none" fill="#000000" transform="matrix(0.0833333 0 0 0.0833333 -233.333 -196)" d="M 5167.91,3670.82 L 4742.31,3425.1 L 4748.31,3415.1 L 5173.91,3660.82 Z " />
<path stroke="none" fill="#000000" transform="matrix(0.0833333 0 0 0.0833333 -233.333 -196)" d="M 5306.5,3744.1 C 5306.5,3744.1 5127.11,3694.07 5127.11,3694.07 C 5127.11,3694.07 5159.76,3682.82 5170.05,3665.32 C 5180.33,3647.83 5174.11,3614.13 5174.11,3614.13 C 5174.11,3614.13 5306.5,3744.1 5306.5,3744.1 C 5306.5,3744.1 5306.5,3744.1 5306.5,3744.1 " />
<path stroke="#000000" stroke-width="1" fill="none" transform="matrix(0.0833333 0 0 0.0833333 -233.333 -196)" d="M 5306.5,3744.1 C 5306.5,3744.1 5127.11,3694.07 5127.11,3694.07 C 5127.11,3694.07 5159.76,3682.82 5170.05,3665.32 C 5180.33,3647.83 5174.11,3614.13 5174.11,3614.13 C 5174.11,3614.13 5306.5,3744.1 5306.5,3744.1 C 5306.5,3744.1 5306.5,3744.1 5306.5,3744.1 " />
<text x="0" y="0" stroke="none" fill="#000000" transform="matrix(0.0833333 0 0 0.0833333 378.588 151.731)" font-style="normal" font-weight="normal" font-size="200px" font-family="Arial" >
Br</text>
<path stroke="#000000" stroke-width="10" fill="none" transform="matrix(0.0833333 0 0 0.0833333 -233.333 -196)" d="M 7524.25,3942.25 A 71.7999,71.7999 0 1 0 7667.84,3942.25A 71.7999,71.7999 0 1 0 7524.25,3942.25Z " />
<path stroke="none" fill="#000000" transform="matrix(0.0833333 0 0 0.0833333 -233.333 -196)" d="M 7556.38,3936.92 L 7635.04,3936.92 L 7635.04,3946.92 L 7556.38,3946.92 Z " />
<text x="0" y="0" stroke="none" fill="#000000" transform="matrix(0.0833333 0 0 0.0833333 357.604 146.293)" font-style="normal" font-weight="normal" font-size="200px" font-family="Arial" >
+</text>
<text x="0" y="0" stroke="none" fill="#000000" transform="matrix(0.0833333 0 0 0.0833333 441.874 31.4951)" font-style="normal" font-weight="normal" font-size="200px" font-family="Arial" >
S</text>
<text x="0" y="0" stroke="none" fill="#000000" transform="matrix(0.0833333 0 0 0.0833333 452.991 35.1617)" font-style="normal" font-weight="normal" font-size="150px" font-family="Arial" >
N</text>
<text x="0" y="0" stroke="none" fill="#000000" transform="matrix(0.0833333 0 0 0.0833333 462.018 31.4951)" font-style="normal" font-weight="normal" font-size="200px" font-family="Arial" >
1, </text>
<text x="0" y="0" stroke="none" fill="#000000" transform="matrix(0.0833333 0 0 0.0833333 480.62 31.4951)" font-style="normal" font-weight="normal" font-size="200px" font-family="Arial" >
S</text>
<text x="0" y="0" stroke="none" fill="#000000" transform="matrix(0.0833333 0 0 0.0833333 491.737 35.1617)" font-style="normal" font-weight="normal" font-size="150px" font-family="Arial" >
N</text>
<text x="0" y="0" stroke="none" fill="#000000" transform="matrix(0.0833333 0 0 0.0833333 500.764 31.4951)" font-style="normal" font-weight="normal" font-size="200px" font-family="Arial" >
2</text>
<text x="0" y="0" stroke="none" fill="#000000" transform="matrix(0.0833333 0 0 0.0833333 439.651 146.293)" font-style="normal" font-weight="normal" font-size="200px" font-family="Arial" >
E1, </text>
<text x="0" y="0" stroke="none" fill="#000000" transform="matrix(0.0833333 0 0 0.0833333 469.37 146.293)" font-style="normal" font-weight="normal" font-size="200px" font-family="Arial" >
E2</text>
<clipPath id="1" >
<path transform="matrix(0.0833333 0 0 0.0833333 -275 -196)" clip-rule="evenodd" d="M 9527.51,2910.19 C 9527.51,2910.19 9527.51,2406.69 9527.51,2406.69 C 9527.51,2406.69 8446.51,2406.69 8446.51,2406.69 C 8446.51,2406.69 8446.51,2910.19 8446.51,2910.19 C 8446.51,2910.19 9527.51,2910.19 9527.51,2910.19 M 9575.51,2958.19 C 9575.51,2958.19 9575.51,2454.69 9575.51,2454.69 C 9575.51,2454.69 8494.51,2454.69 8494.51,2454.69 C 8494.51,2454.69 8494.51,2958.19 8494.51,2958.19 C 8494.51,2958.19 9575.51,2958.19 9575.51,2958.19 " />
</clipPath>
<g clip-path="url(#1)" >
<path stroke="none" fill="#000000" transform="matrix(0.0833333 0 0 0.0833333 -274.917 -195.917)" fill-opacity="0.247059" d="M 9575.51,2958.19 C 9575.51,2958.19 9575.51,2454.69 9575.51,2454.69 C 9575.51,2454.69 8494.51,2454.69 8494.51,2454.69 C 8494.51,2454.69 8494.51,2958.19 8494.51,2958.19 C 8494.51,2958.19 9575.51,2958.19 9575.51,2958.19 " />
</g>
<path stroke="#000000" stroke-width="12" fill="none" transform="matrix(0.0833333 0 0 0.0833333 -233.333 -196)" d="M 9027.51,2910.19 C 9027.51,2910.19 9027.51,2406.69 9027.51,2406.69 C 9027.51,2406.69 7946.51,2406.69 7946.51,2406.69 C 7946.51,2406.69 7946.51,2910.19 7946.51,2910.19 C 7946.51,2910.19 9027.51,2910.19 9027.51,2910.19 " />
<clipPath id="2" >
<path transform="matrix(0.0833333 0 0 0.0833333 -275 -196)" clip-rule="evenodd" d="M 9257.51,4211.26 C 9257.51,4211.26 9257.51,3827.76 9257.51,3827.76 C 9257.51,3827.76 8446.51,3827.76 8446.51,3827.76 C 8446.51,3827.76 8446.51,4211.26 8446.51,4211.26 C 8446.51,4211.26 9257.51,4211.26 9257.51,4211.26 M 9305.51,4259.26 C 9305.51,4259.26 9305.51,3875.76 9305.51,3875.76 C 9305.51,3875.76 8494.51,3875.76 8494.51,3875.76 C 8494.51,3875.76 8494.51,4259.26 8494.51,4259.26 C 8494.51,4259.26 9305.51,4259.26 9305.51,4259.26 " />
</clipPath>
<g clip-path="url(#2)" >
<path stroke="none" fill="#000000" transform="matrix(0.0833333 0 0 0.0833333 -274.917 -195.917)" fill-opacity="0.247059" d="M 9305.51,4259.26 C 9305.51,4259.26 9305.51,3875.76 9305.51,3875.76 C 9305.51,3875.76 8494.51,3875.76 8494.51,3875.76 C 8494.51,3875.76 8494.51,4259.26 8494.51,4259.26 C 8494.51,4259.26 9305.51,4259.26 9305.51,4259.26 " />
</g>
<path stroke="#000000" stroke-width="12" fill="none" transform="matrix(0.0833333 0 0 0.0833333 -233.333 -196)" d="M 8757.51,4211.26 C 8757.51,4211.26 8757.51,3827.76 8757.51,3827.76 C 8757.51,3827.76 7946.51,3827.76 7946.51,3827.76 C 7946.51,3827.76 7946.51,4211.26 7946.51,4211.26 C 7946.51,4211.26 8757.51,4211.26 8757.51,4211.26 " />
</svg>
