<?xml version="1.0" standalone="no" ?>
<!DOCTYPE svg PUBLIC "-//W3C//DTD SVG 1.1//EN" "http://www.w3.org/Graphics/SVG/1.1/DTD/svg11.dtd">
<svg width="415px" height="55px" viewBox="0 0 415 55" style="background-color: #ffffff00" xmlns="http://www.w3.org/2000/svg" xmlns:xlink="http://www.w3.org/1999/xlink" version="1.1" >
<path stroke="none" fill="#000000" transform="matrix(0.0833333 0 0 0.0833333 -128.333 -460)" d="M 5329.07,5878.17 L 5323.07,5881.63 L 5317.07,5878.17 L 5317.07,5593.63 L 5329.07,5593.63 L 5329.07,5878.17 Z " />
<path stroke="none" fill="#000000" transform="matrix(0.0833333 0 0 0.0833333 -128.333 -460)" d="M 5076.65,6030.83 L 5070.65,6020.44 L 5317.07,5878.17 L 5323.07,5881.63 L 5323.07,5888.56 L 5076.65,6030.83 Z " />
<text x="0" y="0" stroke="none" fill="#000000" transform="matrix(0.0833333 0 0 0.0833333 330.04 48.636)" font-style="normal" font-weight="normal" font-size="200px" font-family="Arial" >
H</text>
<path stroke="none" fill="#000000" transform="matrix(0.0833333 0 0 0.0833333 -128.333 -460)" d="M 5479.38,5964.95 L 5473.38,5975.35 L 5323.07,5888.56 L 5323.07,5881.63 L 5329.07,5878.17 L 5479.38,5964.95 Z " />
<path stroke="#000000" stroke-width="10" fill="none" transform="matrix(0.0833333 0 0 0.0833333 -128.333 -460)" d="M 5251.1,5998.13 A 71.7999,71.7999 0 1 0 5394.7,5998.13A 71.7999,71.7999 0 1 0 5251.1,5998.13Z " />
<path stroke="none" fill="#000000" transform="matrix(0.0833333 0 0 0.0833333 -128.333 -460)" d="M 5283.23,5992.8 L 5361.9,5992.8 L 5361.9,6002.8 L 5283.23,6002.8 Z " />
<path stroke="none" fill="#000000" transform="matrix(0.0833333 0 0 0.0833333 -128.333 -460)" d="M 5327.57,5958.47 L 5327.57,6037.13 L 5317.57,6037.13 L 5317.57,5958.47 Z " />
<path stroke="none" fill="#000000" transform="matrix(0.0833333 0 0 0.0833333 -128.333 -460)" d="M 3339.05,5845.81 L 3333.05,5851.81 L 3327.05,5853.73 L 3327.05,5563.81 L 3339.05,5563.81 L 3339.05,5845.81 Z " />
<path stroke="none" fill="#000000" transform="matrix(0.0833333 0 0 0.0833333 -128.333 -460)" d="M 3150.62,6076.67 L 3108.19,6034.24 L 3117.53,6026.61 L 3158.25,6067.33 L 3150.62,6076.67 Z " />
<path stroke="none" fill="#000000" transform="matrix(0.0833333 0 0 0.0833333 -128.333 -460)" d="M 3186.51,6032.72 L 3152.14,5998.35 L 3161.48,5990.72 L 3194.14,6023.38 L 3186.51,6032.72 Z " />
<path stroke="none" fill="#000000" transform="matrix(0.0833333 0 0 0.0833333 -128.333 -460)" d="M 3222.4,5988.77 L 3196.09,5962.46 L 3205.43,5954.83 L 3230.03,5979.43 L 3222.4,5988.77 Z " />
<path stroke="none" fill="#000000" transform="matrix(0.0833333 0 0 0.0833333 -128.333 -460)" d="M 3258.3,5944.82 L 3240.04,5926.57 L 3249.38,5918.94 L 3265.93,5935.48 L 3258.3,5944.82 Z " />
<path stroke="none" fill="#000000" transform="matrix(0.0833333 0 0 0.0833333 -128.333 -460)" d="M 3294.19,5900.87 L 3283.99,5890.67 L 3293.33,5883.04 L 3301.82,5891.53 L 3294.19,5900.87 Z " />
<text x="0" y="0" stroke="none" fill="#000000" transform="matrix(0.0833333 0 0 0.0833333 160.392 51.1213)" font-style="normal" font-weight="normal" font-size="200px" font-family="Arial" >
H</text>
<path stroke="none" fill="#000000" transform="matrix(0.0833333 0 0 0.0833333 -128.333 -460)" d="M 3476.45,5952.78 L 3434.03,5995.21 L 3327.05,5853.73 L 3333.05,5851.81 L 3350.84,5857.81 L 3476.45,5952.78 Z " />
<path stroke="none" fill="#000000" transform="matrix(0.0833333 0 0 0.0833333 -128.333 -460)" d="M 3621.05,5845.81 L 3621.05,5857.81 L 3567.01,5857.81 L 3567.01,5845.81 L 3621.05,5845.81 Z " />
<path stroke="none" fill="#000000" transform="matrix(0.0833333 0 0 0.0833333 -128.333 -460)" d="M 3512.97,5845.81 L 3512.97,5857.81 L 3458.93,5857.81 L 3458.93,5845.81 L 3512.97,5845.81 Z " />
<path stroke="none" fill="#000000" transform="matrix(0.0833333 0 0 0.0833333 -128.333 -460)" d="M 3404.88,5845.81 L 3404.88,5857.81 L 3350.84,5857.81 L 3339.05,5845.81 L 3404.88,5845.81 Z " />
<text x="0" y="0" stroke="none" fill="#000000" transform="matrix(0.0833333 0 0 0.0833333 191.879 34.1507)" font-style="normal" font-weight="normal" font-size="200px" font-family="Arial" >
Br</text>
<path stroke="none" fill="#000000" transform="matrix(0.0833333 0 0 0.0833333 -128.333 -460)" d="M 3825.55,5845.81 L 3825.55,5857.81 L 3784.65,5857.81 L 3784.65,5845.81 L 3825.55,5845.81 Z " />
<path stroke="none" fill="#000000" transform="matrix(0.0833333 0 0 0.0833333 -128.333 -460)" d="M 3743.75,5845.81 L 3743.75,5857.81 L 3702.85,5857.81 L 3702.85,5845.81 L 3743.75,5845.81 Z " />
<path stroke="none" fill="#000000" transform="matrix(0.0833333 0 0 0.0833333 -128.333 -460)" d="M 3661.95,5845.81 L 3661.95,5857.81 L 3621.05,5857.81 L 3621.05,5845.81 L 3661.95,5845.81 Z " />
<path stroke="#000000" stroke-width="10" fill="none" transform="matrix(0.0833333 0 0 0.0833333 -128.333 -460)" d="M 3134.59,5803.48 A 71.7999,71.7999 0 1 0 3278.19,5803.48A 71.7999,71.7999 0 1 0 3134.59,5803.48Z " />
<path stroke="none" fill="#000000" transform="matrix(0.0833333 0 0 0.0833333 -128.333 -460)" d="M 3166.72,5798.14 L 3245.39,5798.14 L 3245.39,5808.14 L 3166.72,5808.14 Z " />
<path stroke="none" fill="#000000" transform="matrix(0.0833333 0 0 0.0833333 -128.333 -460)" d="M 3211.05,5763.81 L 3211.05,5842.48 L 3201.05,5842.48 L 3201.05,5763.81 Z " />
<path stroke="#000000" stroke-width="10" fill="none" transform="matrix(0.0833333 0 0 0.0833333 -128.333 -460)" d="M 4023.74,5699.29 A 71.7999,71.7999 0 1 0 4167.34,5699.29A 71.7999,71.7999 0 1 0 4023.74,5699.29Z " />
<path stroke="none" fill="#000000" transform="matrix(0.0833333 0 0 0.0833333 -128.333 -460)" d="M 4055.87,5693.96 L 4134.54,5693.96 L 4134.54,5703.96 L 4055.87,5703.96 Z " />
<text x="0" y="0" stroke="none" fill="#000000" transform="matrix(0.0833333 0 0 0.0833333 383.588 38.1576)" font-style="normal" font-weight="normal" font-size="200px" font-family="Arial" >
Br</text>
<path stroke="#000000" stroke-width="10" fill="none" transform="matrix(0.0833333 0 0 0.0833333 -128.333 -460)" d="M 6324.25,5747.37 A 71.7999,71.7999 0 1 0 6467.84,5747.37A 71.7999,71.7999 0 1 0 6324.25,5747.37Z " />
<path stroke="none" fill="#000000" transform="matrix(0.0833333 0 0 0.0833333 -128.333 -460)" d="M 6356.38,5742.04 L 6435.04,5742.04 L 6435.04,5752.04 L 6356.38,5752.04 Z " />
<text x="0" y="0" stroke="none" fill="#000000" transform="matrix(0.0833333 0 0 0.0833333 357.948 32.7193)" font-style="normal" font-weight="normal" font-size="200px" font-family="Arial" >
+</text>
<path stroke="none" fill="#000000" transform="matrix(0.0833333 0 0 0.0833333 -128.333 -460)" d="M 1847.61,5878.17 L 1841.61,5881.63 L 1835.61,5878.17 L 1835.61,5593.63 L 1847.61,5593.63 L 1847.61,5878.17 Z " />
<path stroke="none" fill="#000000" transform="matrix(0.0833333 0 0 0.0833333 -128.333 -460)" d="M 1595.2,6030.83 L 1589.2,6020.44 L 1835.61,5878.17 L 1841.61,5881.63 L 1841.61,5888.56 L 1595.2,6030.83 Z " />
<text x="0" y="0" stroke="none" fill="#000000" transform="matrix(0.0833333 0 0 0.0833333 40.3774 48.636)" font-style="normal" font-weight="normal" font-size="200px" font-family="Arial" >
Br</text>
<path stroke="none" fill="#000000" transform="matrix(0.0833333 0 0 0.0833333 -128.333 -460)" d="M 2000.56,5966.47 L 1994.56,5976.86 L 1841.61,5888.56 L 1841.61,5881.63 L 1847.61,5878.17 L 2000.56,5966.47 Z " />
<path stroke="none" fill="#000000" transform="matrix(0.0833333 0 0 0.0833333 -128.333 -460)" d="M 2760.95,5858.38 L 2415.01,5858.38 L 2415.01,5846.38 L 2760.95,5846.38 Z " />
<path stroke="none" fill="#000000" transform="matrix(0.0833333 0 0 0.0833333 -128.333 -460)" d="M 2917.51,5852.38 C 2917.51,5852.38 2737.51,5898.38 2737.51,5898.38 C 2737.51,5898.38 2759.95,5872.51 2759.95,5852.38 C 2759.95,5831.81 2737.51,5805.38 2737.51,5805.38 C 2737.51,5805.38 2917.51,5852.38 2917.51,5852.38 C 2917.51,5852.38 2917.51,5852.38 2917.51,5852.38 " />
<path stroke="#000000" stroke-width="1" fill="none" transform="matrix(0.0833333 0 0 0.0833333 -128.333 -460)" d="M 2917.51,5852.38 C 2917.51,5852.38 2737.51,5898.38 2737.51,5898.38 C 2737.51,5898.38 2759.95,5872.51 2759.95,5852.38 C 2759.95,5831.81 2737.51,5805.38 2737.51,5805.38 C 2737.51,5805.38 2917.51,5852.38 2917.51,5852.38 C 2917.51,5852.38 2917.51,5852.38 2917.51,5852.38 " />
<path stroke="none" fill="#000000" transform="matrix(0.0833333 0 0 0.0833333 -128.333 -460)" d="M 4723.41,5858.38 L 4377.47,5858.38 L 4377.47,5846.38 L 4723.41,5846.38 Z " />
<path stroke="none" fill="#000000" transform="matrix(0.0833333 0 0 0.0833333 -128.333 -460)" d="M 4879.97,5852.38 C 4879.97,5852.38 4699.97,5898.38 4699.97,5898.38 C 4699.97,5898.38 4722.41,5872.51 4722.41,5852.38 C 4722.41,5831.81 4699.97,5805.38 4699.97,5805.38 C 4699.97,5805.38 4879.97,5852.38 4879.97,5852.38 C 4879.97,5852.38 4879.97,5852.38 4879.97,5852.38 " />
<path stroke="#000000" stroke-width="1" fill="none" transform="matrix(0.0833333 0 0 0.0833333 -128.333 -460)" d="M 4879.97,5852.38 C 4879.97,5852.38 4699.97,5898.38 4699.97,5898.38 C 4699.97,5898.38 4722.41,5872.51 4722.41,5852.38 C 4722.41,5831.81 4699.97,5805.38 4699.97,5805.38 C 4699.97,5805.38 4879.97,5852.38 4879.97,5852.38 C 4879.97,5852.38 4879.97,5852.38 4879.97,5852.38 " />
</svg>
