<?xml version="1.0" standalone="no" ?>
<!DOCTYPE svg PUBLIC "-//W3C//DTD SVG 1.1//EN" "http://www.w3.org/Graphics/SVG/1.1/DTD/svg11.dtd">
<svg width="145px" height="75px" viewBox="0 0 145 75" style="background-color: #ffffff00" xmlns="http://www.w3.org/2000/svg" xmlns:xlink="http://www.w3.org/1999/xlink" version="1.1" >
<path stroke="none" fill="#000000" transform="matrix(0.0833333 0 0 0.0833333 -177.333 -348)" d="M 3094.57,4620.84 L 3088.57,4626.84 L 3082.57,4620.84 L 3082.57,4338.84 L 3094.57,4338.84 L 3094.57,4620.84 Z " />
<path stroke="none" fill="#000000" transform="matrix(0.0833333 0 0 0.0833333 -177.333 -348)" d="M 2906.13,4851.7 L 2863.71,4809.27 L 2873.05,4801.64 L 2913.76,4842.36 L 2906.13,4851.7 Z " />
<path stroke="none" fill="#000000" transform="matrix(0.0833333 0 0 0.0833333 -177.333 -348)" d="M 2942.03,4807.75 L 2907.66,4773.38 L 2917,4765.75 L 2949.66,4798.41 L 2942.03,4807.75 Z " />
<path stroke="none" fill="#000000" transform="matrix(0.0833333 0 0 0.0833333 -177.333 -348)" d="M 2977.92,4763.8 L 2951.61,4737.49 L 2960.95,4729.86 L 2985.55,4754.46 L 2977.92,4763.8 Z " />
<path stroke="none" fill="#000000" transform="matrix(0.0833333 0 0 0.0833333 -177.333 -348)" d="M 3013.81,4719.85 L 2995.56,4701.59 L 3004.9,4693.97 L 3021.44,4710.51 L 3013.81,4719.85 Z " />
<path stroke="none" fill="#000000" transform="matrix(0.0833333 0 0 0.0833333 -177.333 -348)" d="M 3049.7,4675.9 L 3039.51,4665.7 L 3048.85,4658.07 L 3057.33,4666.56 L 3049.7,4675.9 Z " />
<text x="0" y="0" stroke="none" fill="#000000" transform="matrix(0.0833333 0 0 0.0833333 91.0179 61.0404)" font-style="normal" font-weight="normal" font-size="200px" font-family="Arial" >
H</text>
<path stroke="none" fill="#000000" transform="matrix(0.0833333 0 0 0.0833333 -177.333 -348)" d="M 3231.97,4727.81 L 3189.54,4770.24 L 3085.65,4632.84 L 3088.57,4626.84 L 3106.36,4632.84 L 3231.97,4727.81 Z " />
<text x="0" y="0" stroke="none" fill="#000000" transform="matrix(0.0833333 0 0 0.0833333 18.5232 44.0698)" font-style="normal" font-weight="normal" font-size="200px" font-family="Arial" >
H</text>
<text x="0" y="0" stroke="none" fill="#000000" transform="matrix(0.0833333 0 0 0.0833333 30.5593 47.7365)" font-style="normal" font-weight="normal" font-size="150px" font-family="Arial" >
3</text>
<text x="0" y="0" stroke="none" fill="#000000" transform="matrix(0.0833333 0 0 0.0833333 37.5112 44.0698)" font-style="normal" font-weight="normal" font-size="200px" font-family="Arial" >
CO</text>
<path stroke="none" fill="#000000" transform="matrix(0.0833333 0 0 0.0833333 -177.333 -348)" d="M 2900.28,4632.84 L 2900.28,4620.84 L 2961.04,4620.84 L 2961.04,4632.84 L 2900.28,4632.84 Z " />
<path stroke="none" fill="#000000" transform="matrix(0.0833333 0 0 0.0833333 -177.333 -348)" d="M 3021.8,4632.84 L 3021.8,4620.84 L 3082.57,4620.84 L 3085.65,4632.84 L 3021.8,4632.84 Z " />
<text x="0" y="0" stroke="none" fill="#000000" transform="matrix(0.0833333 0 0 0.0833333 98.5057 44.0698)" font-style="normal" font-weight="normal" font-size="200px" font-family="Arial" >
Br</text>
<path stroke="none" fill="#000000" transform="matrix(0.0833333 0 0 0.0833333 -177.333 -348)" d="M 3293.07,4620.84 L 3293.07,4632.84 L 3230.83,4632.84 L 3230.83,4620.84 L 3293.07,4620.84 Z " />
<path stroke="none" fill="#000000" transform="matrix(0.0833333 0 0 0.0833333 -177.333 -348)" d="M 3168.59,4620.84 L 3168.59,4632.84 L 3106.36,4632.84 L 3094.57,4620.84 L 3168.59,4620.84 Z " />
<path stroke="#000000" stroke-width="12" fill="none" transform="matrix(0.0833333 0 0 0.0833333 -177.333 -348)" d="M 3626.02,4226.16 L 3683.93,4226.16 " />
<path stroke="#000000" stroke-width="12" fill="none" transform="matrix(0.0833333 0 0 0.0833333 -177.333 -348)" d="M 3683.93,4226.16 L 3683.93,5021.16 " />
<path stroke="#000000" stroke-width="12" fill="none" transform="matrix(0.0833333 0 0 0.0833333 -177.333 -348)" d="M 3683.93,5021.16 L 3626.02,5021.16 " />
<path stroke="#000000" stroke-width="12" fill="none" transform="matrix(0.0833333 0 0 0.0833333 -177.333 -348)" d="M 2234.34,5021.16 L 2176.43,5021.16 " />
<path stroke="#000000" stroke-width="12" fill="none" transform="matrix(0.0833333 0 0 0.0833333 -177.333 -348)" d="M 2176.43,5021.16 L 2176.43,4226.16 " />
<path stroke="#000000" stroke-width="12" fill="none" transform="matrix(0.0833333 0 0 0.0833333 -177.333 -348)" d="M 2176.43,4226.16 L 2234.34,4226.16 " />
<path stroke="none" fill="#000000" transform="matrix(0.0833333 0 0 0.0833333 -177.333 -348)" d="M 3748.17,4224.76 L 3826.83,4224.76 L 3826.83,4234.76 L 3748.17,4234.76 Z " />
</svg>
